<svg width="36" height="36" viewBox="0 0 36 36" fill="none" xmlns="http://www.w3.org/2000/svg">
<g id="Instagram">
<path id="Vector" d="M25.2754 0H10.7246C4.81103 0 0 4.81103 0 10.7246V25.2754C0 31.189 4.81103 36 10.7246 36H25.2754C31.189 36 36 31.189 36 25.2754V10.7246C35.9999 4.81103 31.1889 0 25.2754 0ZM32.3784 25.2754C32.3784 29.1982 29.1982 32.3784 25.2754 32.3784H10.7246C6.80175 32.3784 3.6216 29.1982 3.6216 25.2754V10.7246C3.6216 6.80169 6.80175 3.6216 10.7246 3.6216H25.2754C29.1982 3.6216 32.3784 6.80169 32.3784 10.7246V25.2754Z" fill="url(#paint0_linear_1139_660)"/>
<path id="Vector_2" d="M18.0003 8.68945C12.8663 8.68945 8.68945 12.8663 8.68945 18.0003C8.68945 23.1342 12.8663 27.3111 18.0003 27.3111C23.1344 27.3111 27.3112 23.1343 27.3112 18.0003C27.3112 12.8662 23.1344 8.68945 18.0003 8.68945ZM18.0003 23.6896C14.8582 23.6896 12.3111 21.1425 12.3111 18.0003C12.3111 14.8582 14.8583 12.3111 18.0003 12.3111C21.1425 12.3111 23.6896 14.8582 23.6896 18.0003C23.6896 21.1424 21.1424 23.6896 18.0003 23.6896Z" fill="url(#paint1_linear_1139_660)"/>
<path id="Vector_3" d="M27.3287 10.9905C28.5609 10.9905 29.5598 9.99159 29.5598 8.7594C29.5598 7.52721 28.5609 6.52832 27.3287 6.52832C26.0965 6.52832 25.0977 7.52721 25.0977 8.7594C25.0977 9.99159 26.0965 10.9905 27.3287 10.9905Z" fill="url(#paint2_linear_1139_660)"/>
</g>
<defs>
<linearGradient id="paint0_linear_1139_660" x1="18" y1="35.8952" x2="18" y2="0.279618" gradientUnits="userSpaceOnUse">
<stop stop-color="#E09B3D"/>
<stop offset="0.3" stop-color="#C74C4D"/>
<stop offset="0.6" stop-color="#C21975"/>
<stop offset="1" stop-color="#7024C4"/>
</linearGradient>
<linearGradient id="paint1_linear_1139_660" x1="18.0003" y1="35.8955" x2="18.0003" y2="0.279955" gradientUnits="userSpaceOnUse">
<stop stop-color="#E09B3D"/>
<stop offset="0.3" stop-color="#C74C4D"/>
<stop offset="0.6" stop-color="#C21975"/>
<stop offset="1" stop-color="#7024C4"/>
</linearGradient>
<linearGradient id="paint2_linear_1139_660" x1="27.3287" y1="35.8956" x2="27.3287" y2="0.279995" gradientUnits="userSpaceOnUse">
<stop stop-color="#E09B3D"/>
<stop offset="0.3" stop-color="#C74C4D"/>
<stop offset="0.6" stop-color="#C21975"/>
<stop offset="1" stop-color="#7024C4"/>
</linearGradient>
</defs>
</svg>
