<svg width="48" height="48" viewBox="0 0 48 48" fill="none" xmlns="http://www.w3.org/2000/svg">
<g id="linkedin-Icon">
<path id="Shape" d="M15.1629 40H8.52858V18.6352H15.1629V40ZM11.8422 15.7209C9.72073 15.7209 8 13.9637 8 11.8422C8 9.72022 9.7202 8 11.8422 8C13.9641 8 15.6843 9.72022 15.6843 11.8422C15.6843 13.9637 13.9629 15.7209 11.8422 15.7209ZM39.9931 40H33.373V29.5998C33.373 27.1211 33.323 23.9425 29.9237 23.9425C26.4744 23.9425 25.9458 26.6354 25.9458 29.4212V40H19.3187V18.6352H25.6816V21.5496H25.7744C26.6601 19.871 28.8237 18.0995 32.0516 18.0995C38.7659 18.0995 40.0002 22.521 40.0002 28.264V40H39.9931Z" fill="#2867B2"/>
</g>
</svg>
