<svg width="36" height="36" viewBox="0 0 36 36" fill="none" xmlns="http://www.w3.org/2000/svg">
<g id="slack">
<path id="vector" d="M32.5389 16.6148C34.4505 16.6148 36.0002 15.0651 36.0002 13.1536C36.0002 11.242 34.4504 9.69231 32.5388 9.69231C30.627 9.69231 29.0771 11.2421 29.0771 13.1539V16.6148H32.5389ZM22.8463 16.6148C24.7581 16.6148 26.3078 15.065 26.3078 13.1533V3.46154C26.3078 1.54978 24.7581 0 22.8463 0C20.9345 0 19.3848 1.54978 19.3848 3.46154V13.1533C19.3848 15.065 20.9345 16.6148 22.8463 16.6148Z" fill="#2EB67D"/>
<path id="vector_2" d="M3.46109 19.3852C1.5495 19.3852 -0.000150681 20.9349 -0.000150681 22.8464C-0.000150681 24.758 1.54965 26.3077 3.46124 26.3077C5.37299 26.3077 6.92293 24.7579 6.92293 22.8461V19.3852H3.46109ZM13.1537 19.3852C11.2419 19.3852 9.69216 20.935 9.69216 22.8467V32.5385C9.69216 34.4502 11.2419 36 13.1537 36C15.0655 36 16.6152 34.4502 16.6152 32.5385V22.8467C16.6152 20.935 15.0655 19.3852 13.1537 19.3852Z" fill="#E01E5A"/>
<path id="vector_3" d="M19.3852 32.5389C19.3852 34.4505 20.9349 36.0002 22.8464 36.0002C24.758 36.0002 26.3077 34.4504 26.3077 32.5388C26.3077 30.627 24.7579 29.0771 22.8461 29.0771L19.3852 29.0771L19.3852 32.5389ZM19.3852 22.8463C19.3852 24.7581 20.935 26.3078 22.8467 26.3078L32.5385 26.3078C34.4502 26.3078 36 24.7581 36 22.8463C36 20.9345 34.4502 19.3848 32.5385 19.3848L22.8467 19.3848C20.935 19.3848 19.3852 20.9345 19.3852 22.8463Z" fill="#ECB22E"/>
<path id="vector_4" d="M16.6148 3.46109C16.6148 1.5495 15.0651 -0.000150022 13.1536 -0.000150106C11.242 -0.000150189 9.69231 1.54965 9.69231 3.46124C9.69231 5.37299 11.2421 6.92293 13.1539 6.92293L16.6148 6.92293L16.6148 3.46109ZM16.6148 13.1537C16.6148 11.2419 15.065 9.69216 13.1533 9.69216L3.46154 9.69216C1.54978 9.69216 2.34874e-07 11.2419 1.51309e-07 13.1537C6.77432e-08 15.0655 1.54978 16.6152 3.46154 16.6152L13.1533 16.6152C15.065 16.6152 16.6148 15.0655 16.6148 13.1537Z" fill="#36C5F0"/>
</g>
</svg>
